HIERARCHY
ROOT mixamorig:Hips
{
	OFFSET 0.000002 96.852760 3.073963
	CHANNELS 6 Xposition Yposition Zposition Zrotation Yrotation Xrotation 
	JOINT mixamorig:Spine
	{
		OFFSET 0.000001 13.784841 0.064361
		CHANNELS 3 Zrotation Yrotation Xrotation
		JOINT mixamorig:Spine1
		{
			OFFSET 0.000000 12.017486 0.405859
			CHANNELS 3 Zrotation Yrotation Xrotation
			JOINT mixamorig:Spine2
			{
				OFFSET 0.000000 17.810652 0.430075
				CHANNELS 3 Zrotation Yrotation Xrotation
				JOINT mixamorig:Neck
				{
					OFFSET 0.000000 39.117613 11.976992
					CHANNELS 3 Zrotation Yrotation Xrotation
					JOINT mixamorig:Head
					{
						OFFSET -0.000000 14.552526 15.664096
						CHANNELS 3 Zrotation Yrotation Xrotation
						JOINT mixamorig:HeadTop_End
						{
							OFFSET -0.000000 15.601730 7.553741
							CHANNELS 3 Zrotation Yrotation Xrotation
							End Site
							{
								OFFSET 0.000000 0.000000 0.000000
							}
						}
						JOINT mixamorig:LeftEye
						{
							OFFSET 3.528726 2.462143 12.838181
							CHANNELS 3 Zrotation Yrotation Xrotation
							End Site
							{
								OFFSET 0.000000 0.000000 0.000000
							}
						}
						JOINT mixamorig:RightEye
						{
							OFFSET -3.528733 2.462128 12.838158
							CHANNELS 3 Zrotation Yrotation Xrotation
							End Site
							{
								OFFSET 0.000000 0.000000 0.000000
							}
						}
						JOINT mixamorig:Jaw
						{
							OFFSET -0.000003 -2.317795 3.620705
							CHANNELS 3 Zrotation Yrotation Xrotation
							End Site
							{
								OFFSET 0.000000 0.000000 0.000000
							}
						}
					}
				}
				JOINT mixamorig:LeftShoulder
				{
					OFFSET 17.399467 24.614195 1.157871
					CHANNELS 3 Zrotation Yrotation Xrotation
					JOINT mixamorig:LeftArm
					{
						OFFSET 18.966230 5.773894 1.835135
						CHANNELS 3 Zrotation Yrotation Xrotation
						JOINT mixamorig:LeftForeArm
						{
							OFFSET 49.301285 0.000015 -0.000001
							CHANNELS 3 Zrotation Yrotation Xrotation
							JOINT mixamorig:LeftHand
							{
								OFFSET 31.599922 -0.000045 0.551539
								CHANNELS 3 Zrotation Yrotation Xrotation
								JOINT mixamorig:LeftHandThumb1
								{
									OFFSET 5.970345 -4.397171 7.164893
									CHANNELS 3 Zrotation Yrotation Xrotation
									JOINT mixamorig:LeftHandThumb2
									{
										OFFSET 5.780449 -3.364914 3.473031
										CHANNELS 3 Zrotation Yrotation Xrotation
										JOINT mixamorig:LeftHandThumb3
										{
											OFFSET 5.761932 -3.354172 3.461920
											CHANNELS 3 Zrotation Yrotation Xrotation
											JOINT mixamorig:LeftHandThumb4
											{
												OFFSET 7.832870 -4.559708 4.706182
												CHANNELS 3 Zrotation Yrotation Xrotation
												End Site
												{
													OFFSET 0.000000 0.000000 0.000000
												}
											}
										}
									}
								}
								JOINT mixamorig:LeftHandIndex1
								{
									OFFSET 21.159744 -0.498764 6.563175
									CHANNELS 3 Zrotation Yrotation Xrotation
									JOINT mixamorig:LeftHandIndex2
									{
										OFFSET 7.535339 0.000000 0.131530
										CHANNELS 3 Zrotation Yrotation Xrotation
										JOINT mixamorig:LeftHandIndex3
										{
											OFFSET 7.511169 -0.000015 0.131109
											CHANNELS 3 Zrotation Yrotation Xrotation
											JOINT mixamorig:LeftHandIndex4
											{
												OFFSET 10.210831 -0.000031 0.178228
												CHANNELS 3 Zrotation Yrotation Xrotation
												End Site
												{
													OFFSET 0.000000 0.000000 0.000000
												}
											}
										}
									}
								}
								JOINT mixamorig:LeftHandMiddle1
								{
									OFFSET 23.331192 -0.008621 0.390773
									CHANNELS 3 Zrotation Yrotation Xrotation
									JOINT mixamorig:LeftHandMiddle2
									{
										OFFSET 6.995529 0.000000 0.122108
										CHANNELS 3 Zrotation Yrotation Xrotation
										JOINT mixamorig:LeftHandMiddle3
										{
											OFFSET 7.014908 0.000000 0.122445
											CHANNELS 3 Zrotation Yrotation Xrotation
											JOINT mixamorig:LeftHandMiddle4
											{
												OFFSET 7.720398 -0.000015 0.134760
												CHANNELS 3 Zrotation Yrotation Xrotation
												End Site
												{
													OFFSET 0.000000 0.000000 0.000000
												}
											}
										}
									}
								}
								JOINT mixamorig:LeftHandRing1
								{
									OFFSET 22.796921 -0.103653 -6.119989
									CHANNELS 3 Zrotation Yrotation Xrotation
									JOINT mixamorig:LeftHandRing2
									{
										OFFSET 6.407669 0.000000 0.111846
										CHANNELS 3 Zrotation Yrotation Xrotation
										JOINT mixamorig:LeftHandRing3
										{
											OFFSET 6.149323 0.000000 0.107337
											CHANNELS 3 Zrotation Yrotation Xrotation
											JOINT mixamorig:LeftHandRing4
											{
												OFFSET 6.144455 -0.000015 0.107252
												CHANNELS 3 Zrotation Yrotation Xrotation
												End Site
												{
													OFFSET 0.000000 0.000000 0.000000
												}
											}
										}
									}
								}
								JOINT mixamorig:LeftHandPinky1
								{
									OFFSET 19.078049 -0.461823 -11.111940
									CHANNELS 3 Zrotation Yrotation Xrotation
									JOINT mixamorig:LeftHandPinky2
									{
										OFFSET 4.918869 0.000000 0.085859
										CHANNELS 3 Zrotation Yrotation Xrotation
										JOINT mixamorig:LeftHandPinky3
										{
											OFFSET 5.232224 0.000000 0.091329
											CHANNELS 3 Zrotation Yrotation Xrotation
											JOINT mixamorig:LeftHandPinky4
											{
												OFFSET 5.570877 0.000000 0.097240
												CHANNELS 3 Zrotation Yrotation Xrotation
												End Site
												{
													OFFSET 0.000000 0.000000 0.000000
												}
											}
										}
									}
								}
							}
						}
					}
				}
				JOINT mixamorig:RightShoulder
				{
					OFFSET -17.399502 24.614256 1.157873
					CHANNELS 3 Zrotation Yrotation Xrotation
					JOINT mixamorig:RightArm
					{
						OFFSET -18.966200 5.773998 1.835130
						CHANNELS 3 Zrotation Yrotation Xrotation
						JOINT mixamorig:RightForeArm
						{
							OFFSET -49.301308 0.000015 0.000001
							CHANNELS 3 Zrotation Yrotation Xrotation
							JOINT mixamorig:RightHand
							{
								OFFSET -31.600189 -0.000015 0.551553
								CHANNELS 3 Zrotation Yrotation Xrotation
								JOINT mixamorig:RightHandThumb1
								{
									OFFSET -5.969864 -4.397003 7.164930
									CHANNELS 3 Zrotation Yrotation Xrotation
									JOINT mixamorig:RightHandThumb2
									{
										OFFSET -5.780273 -3.365005 3.473007
										CHANNELS 3 Zrotation Yrotation Xrotation
										JOINT mixamorig:RightHandThumb3
										{
											OFFSET -5.762466 -3.353989 3.461901
											CHANNELS 3 Zrotation Yrotation Xrotation
											JOINT mixamorig:RightHandThumb4
											{
												OFFSET -7.833069 -4.559998 4.706217
												CHANNELS 3 Zrotation Yrotation Xrotation
												End Site
												{
													OFFSET 0.000000 0.000000 0.000000
												}
											}
										}
									}
								}
								JOINT mixamorig:RightHandIndex1
								{
									OFFSET -21.159668 -0.499008 6.563131
									CHANNELS 3 Zrotation Yrotation Xrotation
									JOINT mixamorig:RightHandIndex2
									{
										OFFSET -7.534851 0.000000 0.131519
										CHANNELS 3 Zrotation Yrotation Xrotation
										JOINT mixamorig:RightHandIndex3
										{
											OFFSET -7.511841 0.000000 0.131117
											CHANNELS 3 Zrotation Yrotation Xrotation
											JOINT mixamorig:RightHandIndex4
											{
												OFFSET -10.210464 0.000000 0.178220
												CHANNELS 3 Zrotation Yrotation Xrotation
												End Site
												{
													OFFSET 0.000000 0.000000 0.000000
												}
											}
										}
									}
								}
								JOINT mixamorig:RightHandMiddle1
								{
									OFFSET -23.330734 -0.009003 0.390770
									CHANNELS 3 Zrotation Yrotation Xrotation
									JOINT mixamorig:RightHandMiddle2
									{
										OFFSET -6.995941 0.000000 0.122123
										CHANNELS 3 Zrotation Yrotation Xrotation
										JOINT mixamorig:RightHandMiddle3
										{
											OFFSET -7.014923 -0.000015 0.122463
											CHANNELS 3 Zrotation Yrotation Xrotation
											JOINT mixamorig:RightHandMiddle4
											{
												OFFSET -7.719833 0.000015 0.134769
												CHANNELS 3 Zrotation Yrotation Xrotation
												End Site
												{
													OFFSET 0.000000 0.000000 0.000000
												}
											}
										}
									}
								}
								JOINT mixamorig:RightHandRing1
								{
									OFFSET -22.796280 -0.104004 -6.120000
									CHANNELS 3 Zrotation Yrotation Xrotation
									JOINT mixamorig:RightHandRing2
									{
										OFFSET -6.408035 0.000000 0.111853
										CHANNELS 3 Zrotation Yrotation Xrotation
										JOINT mixamorig:RightHandRing3
										{
											OFFSET -6.149078 0.000000 0.107332
											CHANNELS 3 Zrotation Yrotation Xrotation
											JOINT mixamorig:RightHandRing4
											{
												OFFSET -6.145020 0.000000 0.107262
												CHANNELS 3 Zrotation Yrotation Xrotation
												End Site
												{
													OFFSET 0.000000 0.000000 0.000000
												}
											}
										}
									}
								}
								JOINT mixamorig:RightHandPinky1
								{
									OFFSET -19.077820 -0.462006 -11.111948
									CHANNELS 3 Zrotation Yrotation Xrotation
									JOINT mixamorig:RightHandPinky2
									{
										OFFSET -4.919266 0.000000 0.085865
										CHANNELS 3 Zrotation Yrotation Xrotation
										JOINT mixamorig:RightHandPinky3
										{
											OFFSET -5.232193 0.000000 0.091328
											CHANNELS 3 Zrotation Yrotation Xrotation
											JOINT mixamorig:RightHandPinky4
											{
												OFFSET -5.570129 0.000000 0.097225
												CHANNELS 3 Zrotation Yrotation Xrotation
												End Site
												{
													OFFSET 0.000000 0.000000 0.000000
												}
											}
										}
									}
								}
							}
						}
						JOINT mixamorig:RightArmour1
						{
							OFFSET -5.012878 18.471115 -1.467260
							CHANNELS 3 Zrotation Yrotation Xrotation
							JOINT mixamorig:RightArmour2
							{
								OFFSET 3.884926 -9.462708 -18.584888
								CHANNELS 3 Zrotation Yrotation Xrotation
								JOINT mixamorig:RightArmour3
								{
									OFFSET -2.025597 -10.683548 -1.904895
									CHANNELS 3 Zrotation Yrotation Xrotation
									End Site
									{
										OFFSET 0.000000 0.000000 0.000000
									}
								}
							}
							JOINT mixamorig:RightArmour4
							{
								OFFSET -2.648941 -11.494659 22.195312
								CHANNELS 3 Zrotation Yrotation Xrotation
								JOINT mixamorig:RightArmour5
								{
									OFFSET -4.768017 -9.864624 1.350945
									CHANNELS 3 Zrotation Yrotation Xrotation
									End Site
									{
										OFFSET 0.000000 0.000000 0.000000
									}
								}
							}
						}
					}
				}
			}
		}
	}
	JOINT mixamorig:LeftUpLeg
	{
		OFFSET 19.899147 -7.885054 -3.429541
		CHANNELS 3 Zrotation Yrotation Xrotation
		JOINT mixamorig:LeftLeg
		{
			OFFSET 0.000090 -36.607994 11.199699
			CHANNELS 3 Zrotation Yrotation Xrotation
			JOINT mixamorig:LeftFoot
			{
				OFFSET -0.000091 -29.783565 -13.460409
				CHANNELS 3 Zrotation Yrotation Xrotation
				JOINT mixamorig:LeftToeBase
				{
					OFFSET 0.000006 -22.564229 15.008865
					CHANNELS 3 Zrotation Yrotation Xrotation
					JOINT mixamorig:LeftToe_End
					{
						OFFSET -0.000013 0.010062 16.631996
						CHANNELS 3 Zrotation Yrotation Xrotation
						End Site
						{
							OFFSET 0.000000 0.000000 0.000000
						}
					}
				}
			}
		}
	}
	JOINT mixamorig:RightUpLeg
	{
		OFFSET -19.899101 -7.885063 -3.429541
		CHANNELS 3 Zrotation Yrotation Xrotation
		JOINT mixamorig:RightLeg
		{
			OFFSET -0.000004 -36.608005 11.199677
			CHANNELS 3 Zrotation Yrotation Xrotation
			JOINT mixamorig:RightFoot
			{
				OFFSET 0.000002 -29.783602 -13.460386
				CHANNELS 3 Zrotation Yrotation Xrotation
				JOINT mixamorig:RightToeBase
				{
					OFFSET 0.000005 -22.564204 15.008891
					CHANNELS 3 Zrotation Yrotation Xrotation
					JOINT mixamorig:RightToe_End
					{
						OFFSET 0.000002 0.010016 16.631941
						CHANNELS 3 Zrotation Yrotation Xrotation
						End Site
						{
							OFFSET 0.000000 0.000000 0.000000
						}
					}
				}
			}
		}
	}
	JOINT mixamorig:FrontCloth1
	{
		OFFSET -0.000002 -19.940689 22.170229
		CHANNELS 3 Zrotation Yrotation Xrotation
		JOINT mixamorig:FrontCloth2
		{
			OFFSET -0.000000 -10.763329 0.000000
			CHANNELS 3 Zrotation Yrotation Xrotation
			JOINT mixamorig:FrontCloth3
			{
				OFFSET -0.000000 -13.749531 0.000000
				CHANNELS 3 Zrotation Yrotation Xrotation
				JOINT mixamorig:FrontCloth4
				{
					OFFSET -0.000000 -14.182621 0.000000
					CHANNELS 3 Zrotation Yrotation Xrotation
					End Site
					{
						OFFSET 0.000000 0.000000 0.000000
					}
				}
			}
		}
	}
	JOINT mixamorig:BackCloth1
	{
		OFFSET -0.000002 -5.419212 -29.327024
		CHANNELS 3 Zrotation Yrotation Xrotation
		JOINT mixamorig:BackCloth2
		{
			OFFSET -0.000000 -15.308617 0.000000
			CHANNELS 3 Zrotation Yrotation Xrotation
			JOINT mixamorig:BackCloth3
			{
				OFFSET -0.000000 -17.777119 0.000000
				CHANNELS 3 Zrotation Yrotation Xrotation
				JOINT mixamorig:BackCloth4
				{
					OFFSET -0.000000 -15.545357 0.000000
					CHANNELS 3 Zrotation Yrotation Xrotation
					End Site
					{
						OFFSET 0.000000 0.000000 0.000000
					}
				}
			}
		}
	}
}
MOTION
Frames: 4
Frame Time: 0.016667
0.914674 94.015503 3.272885 -3.246439 -6.941021 -3.349754 2.560737 1.544550 3.353744 1.410256 0.717697 1.131066 1.402746 0.758435 1.106456 0.470063 0.334761 5.599066 -0.264334 1.351712 -7.555275 0.000000 0.000000 0.000000 0.000000 0.000000 0.000000 0.000000 0.000000 0.000000 0.000000 0.000000 -0.000007 -16.227040 -24.532115 6.864695 -65.050679 -9.258543 16.522254 -7.075735 0.807413 -3.634800 -4.957708 -4.700860 -32.810489 4.768752 2.225082 -0.536949 23.456700 20.008206 19.589385 7.718946 5.540864 -13.300964 0.000004 0.000010 0.000001 -7.611054 -0.912495 0.275400 -17.370721 1.784860 0.032911 -8.037227 0.824424 0.082616 -0.000003 -0.000001 0.000001 -15.741128 2.605442 -0.533611 -17.399407 1.787786 0.032489 -18.406647 1.890599 0.017746 -0.000003 0.000000 0.000000 -21.186406 3.537561 -0.837356 -20.902434 2.144062 -0.026590 -17.861469 1.834998 0.025959 0.000004 0.000000 0.000000 -27.172057 5.492226 -1.273637 -17.400050 1.787846 0.032478 -16.500211 1.695791 0.044138 -0.000002 0.000000 0.000000 10.732913 34.949726 -2.354720 58.608465 6.455541 13.371175 6.585903 3.084454 -0.116811 6.869456 1.933499 -19.927058 -4.148346 -0.307501 -1.691537 -24.480700 -23.948944 21.966287 -11.087929 -6.733514 -14.705673 0.000003 0.000002 0.000002 6.850104 1.209125 0.302472 17.407723 -1.428575 0.087508 8.057610 -0.657767 0.094558 0.000001 0.000001 -0.000002 15.038811 -2.157531 -0.452296 17.432499 -1.430720 0.087361 18.441371 -1.513429 0.079052 -0.000001 0.000001 -0.000000 20.511804 -2.979919 -0.708985 20.941455 -1.717962 0.052154 17.891660 -1.468318 0.083731 0.000000 0.000001 0.000000 26.514812 -4.827616 -1.077832 17.430827 -1.430483 0.087352 16.527514 -1.356177 0.093534 0.000001 -0.000003 -0.000000 -0.000001 0.000002 -0.000001 -0.000003 -0.000002 0.000000 -0.000000 0.000002 -0.000008 0.000008 -0.000001 -0.000001 -0.000003 0.000000 0.000006 2.321692 14.440114 -11.748407 4.687094 2.195370 12.898946 -2.349565 1.038205 2.717373 0.000007 0.000052 -4.933146 0.000000 -0.000001 -0.000003 6.773900 -10.802402 -4.627212 -1.278308 -8.656071 8.909401 -1.977240 -1.337511 -1.680209 -0.000001 0.000013 -7.273468 -0.000000 0.000001 -0.000004 -0.000000 -0.000001 0.000005 0.000000 0.000000 0.000000 0.000000 -0.000001 0.000000 0.000000 -0.000001 0.000000 0.000003 0.000000 0.000000 0.000000 0.000000 0.000000 0.000000 0.000000 0.000000 0.000000 0.000000 0.000000 
0.780665 93.909554 3.351290 -2.896149 -6.782778 -3.339990 2.333825 1.563841 3.336020 1.350726 0.716349 1.127284 1.343340 0.756429 1.103004 0.459242 0.361050 5.489312 -0.268723 1.406644 -7.608383 0.000000 0.000000 0.000000 0.000000 0.000000 0.000000 0.000000 0.000000 0.000000 0.000000 0.000000 -0.000005 -16.289442 -24.560988 6.902347 -64.742051 -9.133795 16.182350 -7.071040 0.613805 -3.591215 -4.965202 -4.745994 -31.878991 4.815352 2.080634 -0.540632 22.862329 19.721254 19.168112 7.945158 5.510900 -13.369433 0.000004 0.000003 0.000003 -7.284965 -0.940590 0.327816 -17.903337 1.839262 0.025352 -9.083232 0.932313 0.084837 -0.000005 -0.000001 -0.000001 -16.150087 2.649608 -0.554751 -18.301615 1.879884 0.019358 -18.517168 1.901862 0.016018 -0.000003 0.000001 -0.000000 -22.198082 3.582251 -0.898587 -21.435077 2.197883 -0.037470 -17.944514 1.843466 0.024743 0.000000 -0.000002 -0.000001 -28.064881 5.542470 -1.456692 -18.316296 1.881390 0.019139 -17.482407 1.796266 0.031337 0.000004 0.000000 0.000000 10.864265 34.850345 -2.189688 58.444792 6.396137 13.180623 6.585874 3.037096 -0.118772 6.862806 1.910451 -19.101227 -4.148368 -0.307448 -1.691543 -24.480452 -23.948794 21.966091 -11.087980 -6.733551 -14.705686 -0.000002 -0.000003 0.000003 7.484722 1.150243 0.321115 18.483622 -1.516918 0.078652 9.166036 -0.749065 0.100285 -0.000000 0.000002 -0.000002 15.623265 -2.201111 -0.477876 18.480971 -1.516794 0.078691 19.619523 -1.609971 0.067504 -0.000002 -0.000001 -0.000001 21.054414 -3.021041 -0.736354 22.017573 -1.805575 0.037838 19.071793 -1.565124 0.073090 -0.000002 -0.000000 -0.000001 27.067049 -4.862347 -1.101039 18.482699 -1.516834 0.078648 17.644621 -1.448041 0.085698 0.000002 -0.000001 -0.000000 -0.000002 0.000002 -0.000001 -0.000003 -0.000000 -0.000001 0.000001 0.000000 -0.000003 0.000003 -0.000001 0.000003 0.000001 -0.000003 -0.000002 2.000755 14.413433 -11.925208 4.680009 2.132938 13.172810 -2.395161 0.972263 2.566086 0.000008 0.000033 -4.913004 -0.000000 0.000001 -0.000003 6.667134 -10.511889 -5.594269 -2.010052 -8.954166 10.927092 -1.782487 -1.442071 -2.832837 0.000000 0.000013 -7.364078 -0.000000 0.000001 -0.000004 0.000000 0.000000 0.000005 0.000000 0.000001 0.000000 0.000000 0.000000 0.000000 0.000000 0.000000 0.000000 0.000003 0.000000 0.000000 -0.000001 0.000000 0.000000 -0.000001 0.000000 0.000000 -0.000001 0.000000 0.000000 
0.639648 93.805794 3.437469 -2.545011 -6.614753 -3.342293 2.115304 1.578020 3.323603 1.288776 0.714135 1.123610 1.281516 0.753486 1.099678 0.445297 0.392293 5.420652 -0.286745 1.482683 -7.701788 0.000000 0.000000 0.000000 0.000000 0.000000 0.000000 0.000000 0.000000 0.000000 0.000000 0.000000 -0.000005 -16.347888 -24.585243 6.941314 -64.404022 -8.933179 15.828058 -7.066254 0.263664 -3.533010 -5.023644 -4.706933 -30.887374 4.860199 1.941911 -0.544390 22.259839 19.380400 18.732917 8.168790 5.438312 -13.453430 0.000002 0.000012 0.000001 -6.864097 -0.984742 0.377767 -18.375567 1.887427 0.018207 -10.073626 1.034496 0.085143 0.000004 0.000001 0.000000 -16.499429 2.688210 -0.573042 -19.133717 1.964630 0.005959 -18.596625 1.909962 0.014759 -0.000001 0.000000 0.000000 -23.176787 3.624311 -0.959272 -21.907309 2.245497 -0.047555 -17.997210 1.848838 0.023960 -0.000001 -0.000001 -0.000001 -28.915556 5.592044 -1.635397 -19.251297 1.976602 0.003972 -18.484290 1.898505 0.016523 0.000001 0.000000 0.000000 11.003531 34.776632 -2.022001 58.257222 6.324855 13.019436 6.585827 3.014350 -0.119708 6.817291 1.914276 -18.261189 -4.148357 -0.307504 -1.691531 -24.480788 -23.949122 21.966401 -11.087926 -6.733575 -14.705649 0.000001 -0.000001 -0.000000 8.206425 1.084716 0.336068 19.612232 -1.609367 0.067540 10.282929 -0.841179 0.104300 0.000004 0.000001 0.000002 16.223682 -2.245091 -0.504596 19.544583 -1.603937 0.068281 20.901355 -1.714699 0.052699 0.000000 0.000001 0.000000 21.554621 -3.063483 -0.761894 23.146415 -1.897187 0.021073 20.358430 -1.670375 0.059217 0.000000 0.000001 0.000000 27.588561 -4.897027 -1.119929 19.553943 -1.604596 0.068151 18.781400 -1.541325 0.075882 -0.000002 -0.000001 0.000000 -0.000003 0.000002 -0.000000 -0.000005 0.000000 0.000003 0.000004 0.000000 -0.000002 0.000007 -0.000003 0.000003 0.000000 0.000002 0.000001 1.685821 14.411345 -12.081558 4.670461 2.068713 13.433588 -2.444673 0.872059 2.421986 0.000008 0.000034 -4.919060 0.000000 0.000000 -0.000002 6.530336 -10.272880 -6.453324 -2.650615 -9.114049 12.742361 -1.638778 -1.647972 -3.831440 -0.000000 0.000016 -7.429950 0.000000 -0.000001 -0.000003 -0.000000 -0.000001 0.000005 0.000000 0.000000 0.000000 0.000000 0.000000 0.000000 0.000000 0.000000 0.000000 0.000003 0.000000 0.000000 0.000000 0.000000 0.000000 0.000000 0.000000 0.000000 0.000000 0.000000 0.000000 
0.493640 93.700348 3.528405 -2.188501 -6.442313 -3.352291 1.897572 1.589223 3.314011 1.225425 0.711415 1.119645 1.218292 0.749998 1.096082 0.428603 0.426885 5.381709 -0.313180 1.574094 -7.821923 0.000000 0.000000 0.000000 0.000000 0.000000 0.000000 0.000000 0.000000 0.000000 0.000000 0.000000 -0.000007 -16.402466 -24.608397 6.982368 -64.064653 -8.738705 15.443339 -7.060821 -0.050271 -3.456138 -5.104171 -4.683634 -29.841173 4.903856 1.807086 -0.548249 21.653748 19.000899 18.292016 8.390655 5.337108 -13.548475 0.000002 0.000007 0.000001 -6.379120 -1.039824 0.425854 -18.806986 1.931385 0.011377 -11.026401 1.132762 0.083725 0.000002 0.000000 0.000000 -16.808428 2.723053 -0.589368 -19.918463 2.044380 -0.007784 -18.655096 1.915921 0.013836 0.000001 0.000000 -0.000001 -24.133195 3.664303 -1.019937 -22.338686 2.288946 -0.057085 -18.029376 1.852123 0.023488 0.000001 0.000001 0.000000 -29.737829 5.640961 -1.811332 -20.199017 2.072834 -0.012970 -19.499552 2.001836 -0.000314 0.000000 -0.000001 0.000000 11.145390 34.718959 -1.854701 58.055787 6.247421 12.870713 6.585812 3.007935 -0.119978 6.741468 1.930404 -17.400024 -4.148307 -0.307599 -1.691549 -24.481339 -23.949554 21.966859 -11.087843 -6.733637 -14.705646 0.000003 0.000001 0.000000 8.984164 1.015111 0.348183 20.774792 -1.704375 0.054238 11.405163 -0.933764 0.106488 0.000001 0.000001 -0.000002 16.834311 -2.289229 -0.532235 20.617823 -1.691654 0.056148 22.250159 -1.824481 0.034572 0.000001 0.000000 0.000000 22.027429 -3.106729 -0.786311 24.309265 -1.991171 0.001896 21.713763 -1.780865 0.042047 0.000002 0.000000 0.000000 28.090121 -4.931579 -1.138207 20.637734 -1.693181 0.055887 19.930966 -1.635442 0.064087 0.000001 0.000003 -0.000001 -0.000002 0.000003 -0.000002 -0.000003 -0.000000 -0.000002 -0.000000 0.000002 -0.000006 0.000008 -0.000001 -0.000000 0.000003 0.000001 0.000003 1.370698 14.417889 -12.230671 4.660791 2.009011 13.699758 -2.497013 0.755040 2.278225 0.000007 0.000031 -4.939163 0.000000 0.000000 -0.000002 6.372714 -10.056169 -7.183165 -3.231302 -9.201728 14.322395 -1.448820 -1.910600 -4.676605 -0.000002 0.000008 -7.479418 0.000000 0.000000 -0.000003 0.000000 0.000000 0.000005 0.000000 0.000000 -0.000001 0.000000 0.000000 0.000000 0.000000 0.000000 0.000000 0.000003 0.000000 0.000000 0.000000 0.000000 0.000000 0.000000 0.000000 0.000000 0.000000 0.000000 0.000000 
